<svg width="76" height="75" viewBox="0 0 76 75" fill="none" xmlns="http://www.w3.org/2000/svg">
<g filter="url(#filter0_d_392_64)">
<rect x="18" y="15" width="40" height="40" rx="8.57143" fill="#CAB2F2"/>
<rect x="18.3571" y="15.3571" width="39.2857" height="39.2857" rx="8.21429" stroke="white" stroke-opacity="0.3" stroke-width="0.714286"/>
<g clip-path="url(#clip0_392_64)">
<path d="M44.3081 23.5714H41.1193C38.873 23.5714 37.0448 25.4143 37.0448 27.6786V30H34.7418C32.4955 30 30.6672 31.8428 30.6672 34.1071V36.4286H27.7938C27.4395 35.4893 26.536 34.8214 25.4802 34.8214C24.1125 34.8214 23 35.9428 23 37.3214C23 38.7 24.1125 39.8214 25.4802 39.8214C26.536 39.8214 27.4395 39.1536 27.7938 38.2143H30.6672V43.75C30.6672 46.0143 32.4955 47.8571 34.7418 47.8571C36.9881 47.8571 38.8163 46.0143 38.8163 43.75V38.2143H44.3081C48.3153 38.2143 51.5714 34.9286 51.5714 30.8928C51.5714 26.8571 48.3153 23.5714 44.3081 23.5714ZM25.0125 37.8536C24.8637 37.725 24.7715 37.5321 24.7715 37.3214C24.7715 37.1107 24.8637 36.9178 25.0125 36.7893C25.0337 36.7678 25.0585 36.75 25.0833 36.7321C25.1117 36.7107 25.1436 36.6928 25.1755 36.6786C25.2676 36.6321 25.3703 36.6071 25.4802 36.6071C25.8734 36.6071 26.1888 36.9286 26.1888 37.3214C26.1888 37.7143 25.8734 38.0357 25.4802 38.0357C25.3703 38.0357 25.2676 38.0107 25.1755 37.9643C25.1436 37.95 25.1117 37.9321 25.0833 37.9107C25.0585 37.8928 25.0337 37.875 25.0125 37.8536ZM37.0448 43.75C37.0448 45.0286 36.0137 46.0714 34.7418 46.0714C33.4698 46.0714 32.4388 45.0286 32.4388 43.75V38.2143H37.0448V43.75ZM37.0448 36.4286H32.4388V34.1071C32.4388 32.8286 33.4734 31.7857 34.7418 31.7857H37.0448V36.4286ZM44.3081 36.4286H38.8163V31.7857H41.8563C42.2106 32.725 43.1141 33.3928 44.1699 33.3928C45.5376 33.3928 46.6501 32.2714 46.6501 30.8928C46.6501 29.5143 45.5376 28.3928 44.1699 28.3928C43.1141 28.3928 42.2106 29.0607 41.8563 30H38.8163V27.6786C38.8163 26.4 39.8509 25.3571 41.1193 25.3571H44.3081C47.3374 25.3571 49.7999 27.8393 49.7999 30.8928C49.7999 33.9464 47.3374 36.4286 44.3081 36.4286ZM44.1699 30.1786C44.216 30.1786 44.262 30.1786 44.3081 30.1928C44.6341 30.2571 44.8785 30.5464 44.8785 30.8928C44.8785 31.2393 44.6341 31.5286 44.3081 31.5928C44.262 31.6036 44.216 31.6071 44.1699 31.6071C43.7802 31.6071 43.4613 31.2857 43.4613 30.8928C43.4613 30.5 43.7802 30.1786 44.1699 30.1786Z" fill="#593299"/>
</g>
</g>
<defs>
<filter id="filter0_d_392_64" x="0.857141" y="0.714284" width="74.2857" height="74.2857" filterUnits="userSpaceOnUse" color-interpolation-filters="sRGB">
<feFlood flood-opacity="0" result="BackgroundImageFix"/>
<feColorMatrix in="SourceAlpha" type="matrix" values="0 0 0 0 0 0 0 0 0 0 0 0 0 0 0 0 0 0 127 0" result="hardAlpha"/>
<feOffset dy="2.85714"/>
<feGaussianBlur stdDeviation="8.57143"/>
<feComposite in2="hardAlpha" operator="out"/>
<feColorMatrix type="matrix" values="0 0 0 0 0.215686 0 0 0 0 0.0980392 0 0 0 0 0.407843 0 0 0 0.25 0"/>
<feBlend mode="normal" in2="BackgroundImageFix" result="effect1_dropShadow_392_64"/>
<feBlend mode="normal" in="SourceGraphic" in2="effect1_dropShadow_392_64" result="shape"/>
</filter>
<clipPath id="clip0_392_64">
<rect width="28.5714" height="24.2857" fill="white" transform="translate(23 23.5714)"/>
</clipPath>
</defs>
</svg>
