<svg width="55" height="55" viewBox="0 0 55 55" fill="none" xmlns="http://www.w3.org/2000/svg">
<rect x="0.666626" width="54.2821" height="54.2819" rx="12" fill="#CAB2F2"/>
<path d="M25.5981 22.5275C22.3066 20.2818 19.2381 21.9961 16.6666 24.6361L22.3581 28.0647" stroke="#593299" stroke-width="2" stroke-linecap="round" stroke-linejoin="round"/>
<path d="M32.4209 29.3506C34.6666 32.6419 32.9523 35.7105 30.3124 38.2819L26.8838 32.5905" stroke="#593299" stroke-width="2" stroke-linecap="round" stroke-linejoin="round"/>
<path d="M22.3581 28.0478L26.9009 32.5907C30.5352 30.4135 34.6666 28.305 36.5523 26.3507C40.6323 22.2707 38.2666 16.6821 38.2666 16.6821C38.2666 16.6821 32.6781 14.3164 28.5981 18.3964C26.6438 20.2821 24.5181 24.4307 22.3581 28.0478Z" stroke="#593299" stroke-width="2" stroke-linecap="round" stroke-linejoin="round"/>
<path d="M24.861 23.7448L31.2038 30.0877" stroke="#593299" stroke-width="2" stroke-linecap="round" stroke-linejoin="round"/>
<path d="M33.8095 21.9962C34.2828 21.9962 34.6666 21.6124 34.6666 21.1391C34.6666 20.6657 34.2828 20.2819 33.8095 20.2819C33.3362 20.2819 32.9523 20.6657 32.9523 21.1391C32.9523 21.6124 33.3362 21.9962 33.8095 21.9962Z" stroke="#593299" stroke-width="2" stroke-linecap="round" stroke-linejoin="round"/>
<path d="M22.1181 36.4647C21.1238 37.4247 16.6666 38.2818 16.6666 38.2818C16.6666 38.2818 17.5238 33.8247 18.4838 32.8304C18.7192 32.5779 19.0031 32.3752 19.3185 32.2346C19.6339 32.0941 19.9744 32.0185 20.3197 32.0124C20.665 32.0063 21.0079 32.0699 21.3281 32.1992C21.6483 32.3284 21.9392 32.5209 22.1833 32.7652C22.4275 33.0093 22.62 33.3003 22.7493 33.6205C22.8787 33.9405 22.9422 34.2836 22.9361 34.6288C22.93 34.9741 22.8544 35.3146 22.7139 35.63C22.5733 35.9454 22.3707 36.2293 22.1181 36.4647Z" stroke="#593299" stroke-width="2" stroke-linecap="round" stroke-linejoin="round"/>
</svg>
