<svg width="55" height="55" viewBox="0 0 55 55" fill="none" xmlns="http://www.w3.org/2000/svg">
<rect width="54.2871" height="54.2857" rx="12" fill="#CAB2F2"/>
<path d="M26.0279 16H36.832C37.6356 16 38.2871 16.6515 38.2871 17.4551V29.0757C38.2871 29.8794 37.6356 30.5308 36.832 30.5308H28" stroke="#593299" stroke-width="2" stroke-linecap="round" stroke-linejoin="round"/>
<path d="M20.5403 22.0018C22.1977 22.0018 23.5413 20.6583 23.5413 19.0009C23.5413 17.3436 22.1977 16 20.5403 16C18.883 16 17.5394 17.3436 17.5394 19.0009C17.5394 20.6583 18.883 22.0018 20.5403 22.0018Z" stroke="#593299" stroke-width="2" stroke-linecap="round" stroke-linejoin="round"/>
<path d="M30.5714 24.6185C30.5714 23.6457 29.7828 22.8571 28.8101 22.8571H20.541C18.0331 22.8571 16 24.8902 16 27.3981V31.4285H17.9461L18.5949 38.2857H22.4872L23.9821 26.3799H28.8101C29.7828 26.3799 30.5714 25.5913 30.5714 24.6185Z" stroke="#593299" stroke-width="2" stroke-linecap="round" stroke-linejoin="round"/>
</svg>
