<svg width="54" height="54" viewBox="0 0 54 54" fill="none" xmlns="http://www.w3.org/2000/svg">
<rect x="0.333344" width="53.6001" height="53.5964" rx="12" fill="#CAB2F2"/>
<path d="M30.2191 19.0857C30.2191 19.9041 30.5442 20.689 31.1229 21.2676C31.7016 21.8463 32.4865 22.1714 33.3049 22.1714C34.1232 22.1714 34.9081 21.8463 35.4868 21.2676C36.0655 20.689 36.3906 19.9041 36.3906 19.0857C36.3906 18.2673 36.0655 17.4825 35.4868 16.9038C34.9081 16.3251 34.1232 16 33.3049 16C32.4865 16 31.7016 16.3251 31.1229 16.9038C30.5442 17.4825 30.2191 18.2673 30.2191 19.0857Z" stroke="#593299" stroke-width="2" stroke-linecap="round" stroke-linejoin="round"/>
<path d="M37.9334 29.8862V28.3433C37.9334 25.7869 35.8612 23.7146 33.3049 23.7146C31.5617 23.7146 30.0435 24.6782 29.2541 26.1018" stroke="#593299" stroke-width="2" stroke-linecap="round" stroke-linejoin="round"/>
<path d="M17.8763 19.0857C17.8763 19.4909 17.9561 19.8922 18.1112 20.2666C18.2662 20.6409 18.4935 20.9811 18.7801 21.2676C19.0666 21.5542 19.4068 21.7815 19.7811 21.9365C20.1555 22.0916 20.5568 22.1714 20.962 22.1714C21.3672 22.1714 21.7685 22.0916 22.1428 21.9365C22.5172 21.7815 22.8574 21.5542 23.1439 21.2676C23.4305 20.9811 23.6578 20.6409 23.8128 20.2666C23.9679 19.8922 24.0477 19.4909 24.0477 19.0857C24.0477 18.2673 23.7226 17.4825 23.1439 16.9038C22.5652 16.3251 21.7804 16 20.962 16C20.1436 16 19.3588 16.3251 18.7801 16.9038C18.2014 17.4825 17.8763 18.2673 17.8763 19.0857Z" stroke="#593299" stroke-width="2" stroke-linecap="round" stroke-linejoin="round"/>
<path d="M16.3333 29.8862V28.3433C16.3333 25.7869 18.4057 23.7146 20.962 23.7146C22.7052 23.7146 24.2233 24.6782 25.0127 26.1018" stroke="#593299" stroke-width="2" stroke-linecap="round" stroke-linejoin="round"/>
<path d="M24.0494 28.3394C24.0494 29.1578 24.3745 29.9427 24.9532 30.5214C25.5319 31.1001 26.3168 31.4252 27.1351 31.4252C27.9535 31.4252 28.7384 31.1001 29.3171 30.5214C29.8957 29.9427 30.2209 29.1578 30.2209 28.3394C30.2209 27.5211 29.8957 26.7362 29.3171 26.1575C28.7384 25.5788 27.9535 25.2537 27.1351 25.2537C26.3168 25.2537 25.5319 25.5788 24.9532 26.1575C24.3745 26.7362 24.0494 27.5211 24.0494 28.3394Z" stroke="#593299" stroke-width="2" stroke-linecap="round" stroke-linejoin="round"/>
<path d="M31.7642 37.5964C31.7642 35.0401 29.6918 32.9678 27.1355 32.9678C24.5791 32.9678 22.5068 35.0401 22.5068 37.5964" stroke="#593299" stroke-width="2" stroke-linecap="round" stroke-linejoin="round"/>
</svg>
